<?xml version="1.0" standalone="no"?>
<!DOCTYPE svg PUBLIC "-//W3C//DTD SVG 20010904//EN"
 "http://www.w3.org/TR/2001/REC-SVG-20010904/DTD/svg10.dtd">
<svg version="1.0" xmlns="http://www.w3.org/2000/svg"
 width="512.000000pt" height="512.000000pt" viewBox="0 0 512.000000 512.000000"
 preserveAspectRatio="xMidYMid meet">

<g transform="translate(0.000000,512.000000) scale(0.100000,-0.100000)"
fill="#000000" stroke="none">
<path d="M753 5100 c-9 -13 -29 -21 -62 -26 -36 -5 -48 -10 -44 -20 3 -8 13
-14 23 -14 15 0 17 -7 12 -45 -2 -25 -2 -45 2 -45 4 0 24 17 45 38 21 20 54
48 74 62 19 14 37 35 40 48 5 24 -11 29 -32 10 -11 -10 -13 -10 -7 0 12 21
-38 14 -51 -8z"/>
<path d="M989 5108 c0 -7 -3 -25 -5 -39 -4 -22 1 -29 25 -39 16 -6 38 -21 48
-32 17 -19 17 -21 -7 -42 -14 -11 -40 -40 -57 -62 -31 -39 -32 -42 -13 -47 11
-3 20 -12 20 -21 0 -9 4 -16 9 -16 11 0 -11 -64 -30 -87 -8 -10 -22 -35 -32
-55 -9 -21 -22 -38 -29 -37 -10 0 -10 2 0 6 7 2 12 22 12 44 0 32 -3 39 -20
39 -24 0 -36 40 -21 68 18 34 13 41 -39 48 -27 4 -51 10 -51 15 -1 5 -3 12 -4
17 -2 4 -6 17 -10 30 -11 33 -29 27 -60 -20 -15 -24 -36 -52 -46 -63 -26 -29
-53 -96 -37 -93 7 2 13 -8 13 -24 1 -16 -3 -28 -7 -28 -4 0 -11 -15 -16 -32
-6 -23 -15 -34 -30 -36 -20 -3 -27 6 -23 33 1 6 -6 1 -14 -9 -8 -11 -15 -14
-15 -8 0 23 -37 11 -59 -19 -13 -18 -19 -29 -13 -25 6 3 13 3 16 -2 2 -4 -4
-14 -16 -21 -16 -10 -19 -10 -13 1 3 7 -5 0 -19 -17 -14 -16 -26 -36 -26 -42
0 -7 -4 -13 -9 -13 -10 0 -37 -61 -33 -74 2 -5 -4 -6 -13 -2 -9 3 -13 2 -10
-3 3 -5 0 -13 -6 -17 -6 -3 -15 -1 -19 6 -4 7 -13 9 -20 5 -7 -4 -4 5 5 21 16
26 14 25 -14 -6 -18 -19 -39 -45 -48 -57 -8 -13 -22 -23 -30 -23 -8 0 -13 -6
-10 -12 2 -7 -2 -21 -10 -30 -13 -15 -13 -16 5 -11 12 3 23 12 26 20 3 8 11
11 17 7 9 -5 7 -11 -6 -20 -10 -7 -15 -20 -12 -29 4 -8 1 -15 -6 -15 -7 0 0
-8 15 -17 29 -18 60 -71 51 -86 -2 -4 -11 -3 -18 3 -10 9 -19 6 -34 -9 -23
-23 -46 -27 -56 -10 -4 6 -13 8 -21 5 -20 -8 -28 12 -12 31 11 14 11 16 -4 11
-20 -8 -31 15 -15 31 8 8 8 11 0 11 -14 0 -43 -28 -43 -41 0 -5 -7 -9 -15 -9
-8 0 -15 -7 -15 -15 0 -8 -13 -30 -30 -48 -27 -31 -30 -42 -30 -101 0 -36 3
-66 8 -66 4 0 7 -18 7 -40 1 -22 -3 -40 -7 -40 -5 0 -8 -149 -8 -330 1 -280 3
-332 15 -337 8 -3 15 -10 15 -17 0 -6 13 -19 29 -29 15 -9 34 -31 42 -48 11
-29 10 -39 -10 -93 -13 -34 -30 -87 -39 -119 -17 -67 -31 -60 -33 18 0 28 -4
59 -9 70 -6 13 -9 -19 -9 -91 -1 -71 3 -114 11 -122 8 -8 8 -15 0 -25 -8 -10
-12 -375 -12 -1370 l0 -1357 2560 0 2560 0 0 1366 c0 907 -3 1363 -10 1359 -5
-3 -10 -1 -10 4 0 6 5 11 10 11 14 0 14 1989 0 2010 -7 11 -10 7 -11 -20 l-1
-35 -7 30 c-5 21 -2 42 11 67 15 31 18 62 18 183 l0 145 -1937 0 c-1724 0
-1935 -2 -1917 -15 19 -15 18 -15 -6 -36 l-24 -21 -11 30 c-12 37 -31 57 -20
23 5 -16 4 -21 -4 -17 -17 11 -13 -5 7 -28 17 -21 17 -21 -3 -4 -57 47 -214
87 -216 56z m3071 -78 c0 -5 -4 -10 -10 -10 -5 0 -10 5 -10 10 0 6 5 10 10 10
6 0 10 -4 10 -10z m-2020 -144 c0 -22 -16 -36 -41 -36 -10 0 -12 40 -3 64 9
24 44 1 44 -28z m1673 -67 c-11 -18 -24 -34 -31 -37 -18 -6 -3 58 22 89 21 25
21 25 24 4 2 -12 -5 -37 -15 -56z m-2190 65 c3 -4 2 -15 -3 -25 -7 -13 -6 -18
4 -21 11 -2 9 -10 -9 -32 -23 -28 -24 -29 -42 -11 -12 12 -14 20 -6 22 7 3 9
11 6 19 -3 8 -1 14 5 14 5 0 12 9 15 20 5 20 18 26 30 14z m2347 -24 c0 -5 -2
-10 -4 -10 -3 0 -8 5 -11 10 -3 6 -1 10 4 10 6 0 11 -4 11 -10z m1179 -43 c0
-27 -2 -29 -9 -12 -12 28 -12 57 0 50 6 -3 10 -21 9 -38z m-3018 -24 c-8 -15
-10 -15 -11 -2 0 17 10 32 18 25 2 -3 -1 -13 -7 -23z m-1316 -13 c3 -5 2 -10
-4 -10 -5 0 -13 5 -16 10 -3 6 -2 10 4 10 5 0 13 -4 16 -10z m2896 -33 c-13
-13 -15 -41 -2 -33 5 4 7 -4 3 -16 -3 -13 -7 -17 -10 -10 -3 10 -7 10 -20 0
-15 -12 -16 -11 -3 5 8 9 11 20 7 24 -3 4 -13 -2 -21 -13 -13 -18 -14 -18 -15
-1 0 21 63 83 69 66 2 -6 -2 -16 -8 -22z m-2109 -4 c53 -21 150 -92 145 -106
-2 -6 -15 -14 -29 -18 -20 -5 -43 4 -104 39 -44 24 -80 46 -82 47 -3 3 20 55
24 55 2 0 23 -8 46 -17z m-772 -15 c0 -19 -2 -20 -10 -8 -13 19 -13 30 0 30 6
0 10 -10 10 -22z m2973 -30 c8 -5 6 -9 -6 -14 -22 -8 -25 -6 -31 28 -6 34 6
46 17 16 4 -12 13 -26 20 -30z m-2858 14 c-3 -3 -11 0 -18 7 -9 10 -8 11 6 5
10 -3 15 -9 12 -12z m810 -12 c3 -5 3 -15 -1 -21 -6 -11 -23 6 -24 24 0 10 18
9 25 -3z m-850 -10 c3 -6 -1 -7 -9 -4 -18 7 -21 14 -7 14 6 0 13 -4 16 -10z
m290 -10 c-3 -5 -12 -10 -18 -10 -7 0 -6 4 3 10 19 12 23 12 15 0z m2395 -40
c-11 -22 -20 -48 -20 -59 0 -11 -9 -22 -20 -26 -11 -3 -22 -16 -24 -28 -7 -36
-5 -68 3 -63 4 3 13 1 21 -4 11 -7 11 -16 0 -54 -7 -25 -15 -46 -18 -46 -15 0
-40 34 -35 48 4 15 3 15 -6 2 -8 -12 -13 -12 -23 -2 -8 8 -9 15 -3 20 17 12
35 51 35 76 0 35 -21 44 -38 18 -20 -30 -34 -27 -28 6 14 74 18 88 34 104 19
20 122 59 134 52 4 -3 -1 -23 -12 -44z m-2068 -10 c17 0 14 -5 -17 -30 -39
-31 -46 -39 -81 -95 l-18 -30 31 33 c17 17 39 32 49 32 9 0 14 3 11 7 -8 7 21
43 35 43 4 0 8 -6 8 -13 0 -7 9 -18 21 -25 15 -10 20 -21 16 -38 -2 -13 2 -29
10 -36 11 -9 11 -13 1 -19 -22 -14 -31 -10 -17 8 12 15 12 16 -2 11 -12 -5
-16 -2 -12 11 3 12 -1 18 -12 18 -9 0 -14 -6 -11 -14 4 -8 1 -11 -5 -8 -6 4
-13 -2 -16 -13 -3 -12 -16 -22 -35 -26 -16 -3 -27 -10 -23 -16 3 -5 1 -10 -4
-10 -6 0 -11 5 -11 10 0 6 -5 10 -11 10 -5 0 -7 -4 -4 -10 3 -5 -1 -10 -9 -10
-9 0 -16 8 -16 18 -1 16 -1 16 -14 0 -7 -10 -17 -18 -21 -18 -5 0 -16 -6 -24
-14 -14 -13 -19 -12 -40 5 -21 17 -22 22 -11 49 7 17 16 30 20 30 12 0 30 49
24 65 -4 10 0 15 12 15 11 1 44 20 74 44 45 35 57 40 68 29 7 -7 23 -13 34
-13z m-652 10 c0 -5 -4 -10 -10 -10 -5 0 -10 5 -10 10 0 6 5 10 10 10 6 0 10
-4 10 -10z m20 -40 c0 -5 -4 -10 -9 -10 -16 0 -23 -52 -9 -62 9 -6 6 -7 -9 -3
-25 7 -26 4 -23 -56 1 -28 -5 -43 -30 -68 -17 -17 -38 -31 -46 -31 -12 0 -15
4 -14 25 0 3 -6 19 -15 35 -15 28 -14 31 13 57 16 16 32 36 35 47 4 10 13 16
22 13 9 -4 22 7 35 29 20 32 50 46 50 24z m-157 -23 c7 -19 -8 -43 -18 -28 -5
9 -10 9 -21 0 -11 -9 -14 -8 -14 5 0 9 7 16 15 16 8 0 15 5 15 10 0 15 17 12
23 -3z m2660 -20 c-3 -5 5 -6 18 -2 20 6 22 5 12 -6 -7 -7 -13 -30 -13 -52 0
-35 -2 -38 -22 -31 -46 14 -51 21 -19 27 22 5 31 12 31 27 0 20 0 20 -21 -1
-19 -19 -21 -20 -33 -3 -7 9 -18 14 -24 10 -7 -4 -12 -3 -12 1 0 13 52 42 72
40 9 -1 14 -5 11 -10z m1157 3 c0 -5 -4 -10 -10 -10 -5 0 -10 5 -10 10 0 6 5
10 10 10 6 0 10 -4 10 -10z m-655 -30 c-3 -5 -11 -10 -16 -10 -6 0 -7 5 -4 10
3 6 11 10 16 10 6 0 7 -4 4 -10z m-2710 -20 c3 -5 -1 -10 -9 -10 -9 0 -16 5
-16 10 0 6 4 10 9 10 6 0 13 -4 16 -10z m2361 -17 c-10 -10 -19 5 -10 18 6 11
8 11 12 0 2 -7 1 -15 -2 -18z m-1792 2 c6 -17 4 -18 -18 -9 -20 8 -21 24 -2
24 8 0 16 -7 20 -15z m-835 -22 c-3 -34 1 -36 22 -9 17 21 24 25 30 14 5 -7 9
-9 9 -5 0 14 60 -33 60 -47 0 -8 -7 -19 -15 -26 -13 -11 -21 -10 -43 7 -15 12
-26 26 -24 32 4 21 -13 11 -33 -19 -11 -16 -23 -30 -27 -30 -3 0 -4 -9 -1 -20
3 -11 9 -20 14 -20 12 0 11 -37 -1 -45 -5 -3 -6 -13 -3 -22 4 -11 3 -14 -5 -9
-8 5 -10 2 -6 -8 4 -12 0 -16 -16 -16 -11 0 -19 -4 -16 -9 10 -15 -22 -21 -54
-9 -31 10 -36 34 -8 32 13 -1 14 5 5 37 -7 31 -6 41 7 54 9 9 16 21 16 26 0
10 79 109 87 109 2 0 3 -8 2 -17z m2995 2 c-4 -8 -12 -15 -20 -15 -17 0 -18
17 -1 23 22 9 27 7 21 -8z m-107 -27 c-3 -8 -6 -5 -6 6 -1 11 2 17 5 13 3 -3
4 -12 1 -19z m-14 -42 c-3 -4 -9 -2 -14 5 -13 22 -11 31 5 17 8 -7 12 -17 9
-22z m497 -12 c0 -8 -4 -12 -10 -9 -5 3 -10 10 -10 16 0 5 5 9 10 9 6 0 10 -7
10 -16z m530 6 c0 -5 -5 -10 -11 -10 -5 0 -7 5 -4 10 3 6 8 10 11 10 2 0 4 -4
4 -10z m-1070 -25 c7 -8 21 -15 31 -15 25 0 26 -40 2 -41 -14 0 -13 -2 5 -9
12 -5 22 -14 22 -20 0 -6 -18 -1 -40 10 -21 11 -54 20 -73 20 -52 0 -62 19
-24 46 38 27 60 29 77 9z m798 4 c-2 -6 -8 -10 -13 -10 -5 0 -11 4 -13 10 -2
6 4 11 13 11 9 0 15 -5 13 -11z m-3993 -29 c14 0 25 -5 25 -11 0 -6 12 -1 28
11 l27 22 3 -36 c3 -31 -4 -44 -43 -91 -29 -33 -52 -52 -61 -48 -18 7 -18 37
2 74 15 30 15 30 -5 19 -12 -6 -21 -14 -21 -18 -1 -4 -9 -17 -20 -30 -27 -33
-46 -18 -22 16 10 15 25 49 32 75 10 38 15 45 22 33 5 -9 20 -16 33 -16z m910
5 c-16 -13 -32 -21 -35 -18 -3 3 1 8 8 10 7 3 18 11 25 19 7 7 17 13 22 13 6
0 -3 -11 -20 -24z m-44 -3 c-11 -21 -41 -48 -41 -38 0 4 7 18 16 31 19 29 40
34 25 7z m-677 -24 c-4 -13 -23 -45 -44 -73 -44 -59 -67 -100 -51 -91 29 19
-13 -64 -53 -102 -26 -25 -34 -40 -33 -67 0 -18 5 -31 10 -28 5 3 8 0 6 -6 -3
-7 -8 -11 -11 -9 -4 2 -14 -6 -22 -17 -9 -11 -16 -14 -16 -7 0 6 -5 12 -11 12
-6 0 -9 -6 -6 -14 6 -15 -24 -17 -34 -3 -4 5 -18 10 -33 10 -19 2 -24 6 -20
17 4 8 7 23 8 32 0 9 3 15 7 13 3 -2 27 24 52 59 26 35 53 69 62 76 8 7 15 18
15 26 0 7 11 25 25 40 13 14 23 29 21 33 -6 9 23 46 30 38 4 -4 1 -14 -7 -23
-13 -16 -12 -16 9 -5 15 8 21 18 18 27 -3 9 -1 12 4 9 11 -7 59 43 60 63 0 6
5 12 11 12 6 0 8 -9 3 -22z m3106 -43 c7 -9 8 -15 2 -15 -5 0 -12 7 -16 15 -3
8 -4 15 -2 15 2 0 9 -7 16 -15z m-2855 -65 c-9 -15 -35 -12 -35 3 0 7 5 18 12
25 9 9 14 9 21 -3 4 -8 5 -20 2 -25z m2873 29 c-2 -6 -8 -10 -13 -10 -5 0 -11
4 -13 10 -2 6 4 11 13 11 9 0 15 -5 13 -11z m-3168 -49 c0 -5 -2 -10 -4 -10
-3 0 -8 5 -11 10 -3 6 -1 10 4 10 6 0 11 -4 11 -10z m-222 -73 c2 -10 1 -25
-2 -33 -5 -13 -10 -12 -36 6 -24 17 -27 24 -17 35 16 20 51 14 55 -8z m614 -4
c19 -17 24 -43 8 -43 -5 0 -15 9 -22 20 -7 11 -20 20 -28 20 -13 0 -13 1 0 10
20 13 20 13 42 -7z m-42 -28 c7 -9 8 -15 2 -15 -5 0 -12 7 -16 15 -3 8 -4 15
-2 15 2 0 9 -7 16 -15z m-190 -5 c13 -8 13 -10 1 -10 -12 0 -11 -3 2 -12 16
-12 16 -15 -3 -43 -11 -16 -20 -25 -20 -20 0 6 -12 11 -27 10 -34 0 -39 15
-13 45 11 13 20 27 20 32 0 11 21 10 40 -2z m150 -15 c0 -8 -15 -22 -32 -31
l-33 -16 30 31 c35 35 35 35 35 16z m-830 2 c0 -2 -16 -18 -35 -37 -19 -19
-35 -29 -35 -22 0 12 50 62 62 62 5 0 8 -1 8 -3z m3930 -17 c0 -5 -4 -10 -10
-10 -5 0 -10 5 -10 10 0 6 5 10 10 10 6 0 10 -4 10 -10z m-2841 -83 c0 -9 -2
-8 -6 1 -2 6 -10 9 -15 6 -7 -4 -8 -2 -4 5 9 13 26 5 25 -12z m3721 13 c0 -5
-2 -10 -4 -10 -3 0 -8 5 -11 10 -3 6 -1 10 4 10 6 0 11 -4 11 -10z m-4222 -40
c6 0 12 -10 12 -21 0 -19 -4 -21 -41 -16 -49 6 -56 12 -39 32 8 10 22 14 34
11 12 -3 27 -6 34 -6z m182 -19 c0 -5 -7 -11 -15 -15 -15 -5 -20 5 -8 17 9 10
23 9 23 -2z m-638 -7 c10 -10 -4 -44 -18 -44 -17 0 -18 12 -1 29 10 11 7 12
-18 7 -22 -5 -26 -4 -15 4 16 11 43 13 52 4z m-105 -10 c-3 -3 -12 -4 -19 -1
-8 3 -5 6 6 6 11 1 17 -2 13 -5z m260 -13 c18 -7 30 -18 27 -23 -10 -15 16
-28 58 -28 20 0 38 -5 40 -12 4 -12 27 -16 112 -17 51 -1 57 -3 46 -16 -17
-21 -1 -19 24 3 20 16 20 16 7 -1 -8 -9 -11 -21 -7 -25 4 -4 14 2 22 12 10 15
29 20 78 24 39 2 66 -1 71 -7 8 -14 45 -14 45 -1 0 6 36 10 89 10 l88 0 -5
-26 c-3 -18 -9 -23 -21 -18 -39 16 -50 15 -60 -5 -10 -18 -9 -21 6 -19 63 5
70 -13 13 -36 -43 -17 -55 -46 -17 -42 12 2 33 8 46 15 18 10 22 10 19 1 -2
-7 -27 -21 -55 -32 -35 -13 -54 -26 -59 -41 -4 -12 -24 -37 -45 -55 -22 -19
-37 -37 -34 -42 7 -11 -144 -124 -154 -115 -2 3 8 14 22 26 15 11 27 27 27 34
0 8 6 18 13 22 14 9 68 115 62 122 -3 2 -12 -2 -21 -10 -16 -12 -17 -12 -12 7
5 20 4 20 -23 7 -20 -10 -29 -22 -29 -38 0 -29 -25 -24 -33 6 -6 23 11 79 29
94 6 6 20 24 30 40 17 27 17 28 1 16 -9 -7 -23 -11 -31 -8 -17 7 -19 0 -36
-88 -6 -33 -14 -68 -16 -77 -7 -25 -28 -23 -21 2 7 28 -7 25 -27 -5 -9 -14
-21 -23 -26 -20 -6 4 -26 1 -45 -6 -25 -9 -35 -19 -35 -34 0 -12 -9 -30 -20
-40 -11 -10 -20 -24 -20 -32 0 -7 -14 -16 -30 -20 l-31 -6 21 -21 c27 -30 25
-39 -6 -33 -17 3 -24 1 -20 -8 3 -8 -2 -11 -15 -8 -13 4 -19 14 -19 32 0 15
-5 32 -11 38 -5 5 -10 29 -11 52 0 22 -5 41 -10 41 -6 0 -8 8 -6 18 3 11 -1
30 -8 43 -17 31 -17 39 1 39 22 0 19 21 -4 27 -10 2 -24 16 -30 29 -9 21 -7
30 11 54 16 22 24 27 31 18 5 -8 7 -1 3 20 -3 20 -2 31 4 27 9 -5 70 20 70 29
0 3 -13 -1 -30 -7 -16 -6 -33 -7 -37 -3 -4 5 -2 11 5 13 17 7 15 23 -4 23 -8
0 -13 4 -10 9 3 5 -4 12 -17 16 -21 7 -21 7 -2 12 41 10 41 26 0 20 -38 -6
-95 9 -95 25 0 4 19 9 43 11 48 4 42 5 84 -12z m1320 -53 c-3 -7 -5 -2 -5 12
0 14 2 19 5 13 2 -7 2 -19 0 -25z m-967 12 c0 -5 -5 -10 -11 -10 -5 0 -7 5 -4
10 3 6 8 10 11 10 2 0 4 -4 4 -10z m-401 -26 c6 -14 9 -29 6 -34 -3 -4 2 -10
10 -13 11 -5 7 -14 -17 -41 -33 -38 -48 -38 -48 -2 0 13 -7 40 -15 59 -21 51
-19 57 18 57 27 0 36 -6 46 -26z m26 -84 c3 -5 1 -10 -4 -10 -6 0 -11 5 -11
10 0 6 2 10 4 10 3 0 8 -4 11 -10z m-170 -189 c-12 -49 -21 -2 -10 56 l10 58
3 -44 c2 -25 0 -56 -3 -70z m725 -31 c-6 -11 -12 -20 -14 -20 -3 0 -1 23 3 38
1 1 6 2 11 2 7 0 7 -6 0 -20z m-175 -20 c3 -10 0 -31 -8 -46 -14 -26 -15 -27
-21 -7 -8 24 2 73 14 73 5 0 11 -9 15 -20z m-50 -10 c-3 -11 -3 -25 2 -32 4
-7 8 -32 9 -55 1 -40 0 -43 -24 -43 -20 0 -23 -3 -14 -12 9 -9 2 -16 -29 -30
-55 -24 -57 -23 -57 17 0 25 5 35 15 35 9 0 13 -6 9 -15 -3 -8 -1 -15 3 -15 5
0 14 14 20 30 9 26 7 34 -9 50 -24 24 -28 49 -5 30 12 -10 15 -7 21 14 6 26
28 45 52 46 9 0 11 -7 7 -20z m256 -33 c-10 -9 -11 -8 -5 6 3 10 9 15 12 12 3
-3 0 -11 -7 -18z m569 19 c0 -3 -4 -8 -10 -11 -5 -3 -10 -1 -10 4 0 6 5 11 10
11 6 0 10 -2 10 -4z m749 -36 c7 -17 10 -37 7 -45 -3 -8 1 -18 9 -22 12 -7 12
-14 1 -47 -8 -23 -21 -41 -30 -42 -10 -1 -26 -13 -37 -25 -16 -18 -22 -20 -28
-10 -7 11 -10 11 -17 0 -4 -7 -3 -14 4 -17 24 -8 10 -38 -36 -74 -26 -21 -54
-38 -62 -38 -9 0 -26 -7 -39 -16 -18 -13 -25 -14 -31 -4 -8 12 4 54 21 74 4 5
1 19 -7 31 -12 19 -13 33 -2 96 7 41 17 79 23 85 6 6 26 9 44 6 29 -4 33 -2
28 12 -5 12 -1 16 17 16 13 0 38 11 57 24 46 33 62 32 78 -4z m-2129 -6 c0 -2
-7 -4 -15 -4 -8 0 -15 4 -15 10 0 5 7 7 15 4 8 -4 15 -8 15 -10z m1280 11 c0
-15 -46 -65 -59 -66 -10 0 -8 -4 6 -9 33 -13 19 -42 -16 -34 -40 10 -43 17
-16 46 14 15 25 31 25 36 0 14 23 32 42 32 10 0 18 -2 18 -5z m-586 -30 c-14
-22 -42 -37 -31 -17 2 4 7 15 10 25 4 9 13 17 22 17 14 0 14 -3 -1 -25z m126
15 c0 -5 -5 -10 -11 -10 -6 0 -8 -11 -4 -29 5 -25 3 -28 -17 -27 -13 1 -34 -6
-47 -16 -23 -17 -41 -16 -41 3 0 5 5 9 10 9 6 0 28 18 49 40 37 39 61 51 61
30z m-869 -31 c-5 -13 -10 -19 -10 -12 -1 15 10 45 15 40 3 -2 0 -15 -5 -28z
m507 -1 c-7 -20 -48 -23 -48 -4 0 11 9 16 26 16 16 0 24 -5 22 -12z m-469 -44
c15 -11 19 -20 13 -26 -15 -15 -38 -3 -45 21 -6 25 1 26 32 5z m1861 -4 c-1
-13 -17 -28 -39 -35 -18 -5 -22 -4 -16 6 5 8 -1 5 -13 -5 -27 -24 -29 -7 -3
21 17 18 71 28 71 13z m-203 -6 c-3 -3 -12 -4 -19 -1 -8 3 -5 6 6 6 11 1 17
-2 13 -5z m558 -14 c-3 -5 -11 -10 -16 -10 -6 0 -7 5 -4 10 3 6 11 10 16 10 6
0 7 -4 4 -10z m-2053 -42 c-8 -18 -17 -27 -19 -21 -5 15 14 53 27 53 4 0 1
-14 -8 -32z m-134 -6 c6 -19 -13 -14 -33 8 -18 20 -18 21 5 12 13 -5 26 -14
28 -20z m162 -2 c0 -5 -5 -10 -11 -10 -5 0 -7 5 -4 10 3 6 8 10 11 10 2 0 4
-4 4 -10z m1945 -40 c-3 -5 -10 -10 -16 -10 -5 0 -9 5 -9 10 0 6 7 10 16 10 8
0 12 -4 9 -10z m-347 -35 c52 22 55 20 48 -20 -9 -47 -24 -71 -53 -84 -13 -6
-23 -15 -23 -21 0 -5 -7 -10 -15 -10 -8 0 -20 -9 -27 -20 -7 -11 -20 -20 -29
-20 -9 0 -22 -7 -29 -15 -14 -17 -43 -19 -71 -5 -25 14 -24 30 6 59 14 13 25
27 25 32 0 5 11 11 25 15 14 3 25 9 25 13 0 4 14 15 30 24 17 10 30 25 30 33
0 9 5 25 11 37 l12 21 9 -23 c6 -17 13 -21 26 -16z m-1648 -28 c0 -16 -2 -17
-15 -3 -8 8 -12 22 -9 31 6 13 8 14 15 3 5 -7 9 -21 9 -31z m256 -15 c-9 -9
-37 8 -31 18 5 8 11 7 21 -1 8 -6 12 -14 10 -17z m-326 -29 c0 -9 3 -14 6 -10
7 6 34 -17 34 -29 0 -3 -13 -33 -30 -65 -16 -33 -26 -59 -20 -59 5 0 11 4 15
10 3 5 12 7 20 4 8 -4 13 -10 10 -14 -3 -4 3 -11 13 -15 15 -6 13 -10 -13 -31
-16 -13 -34 -24 -38 -24 -5 0 -20 -13 -34 -30 -27 -33 -49 -40 -39 -13 5 13 0
11 -20 -7 -22 -20 -26 -21 -21 -7 4 10 7 26 7 35 0 15 2 15 11 2 9 -12 10 -11
6 7 -3 14 1 23 12 26 21 5 42 72 34 110 -3 17 -1 27 6 27 8 0 10 12 5 36 -5
27 -4 35 5 30 7 -5 11 1 11 13 0 12 5 21 10 21 6 0 10 -7 10 -17z m141 -115
c30 -58 6 -45 -26 15 -20 36 -23 48 -11 38 10 -8 26 -32 37 -53z m909 26 c0
-14 -4 -23 -10 -19 -5 3 -10 15 -10 26 0 10 5 19 10 19 6 0 10 -12 10 -26z
m275 -126 c6 -25 36 -60 90 -104 18 -14 18 -15 2 -10 -11 3 -31 9 -45 12 -15
4 -33 11 -39 17 -9 6 -13 6 -13 -3 0 -10 -3 -10 -15 0 -8 7 -15 24 -15 38 0
14 -11 40 -25 58 -14 18 -25 40 -25 49 0 9 -5 26 -11 37 -7 13 9 4 39 -23 30
-25 54 -55 57 -71z m385 102 c0 -5 -4 -10 -10 -10 -5 0 -10 5 -10 10 0 6 5 10
10 10 6 0 10 -4 10 -10z m38 -29 c3 -8 -1 -12 -9 -9 -7 2 -15 10 -17 17 -3 8
1 12 9 9 7 -2 15 -10 17 -17z m-48 -42 c0 -9 22 -10 76 -5 l76 6 -16 -25 c-9
-14 -12 -25 -6 -25 5 0 10 -4 10 -8 0 -14 -150 -32 -176 -22 -15 6 -24 5 -27
-3 -5 -15 -47 20 -47 39 0 15 64 51 93 53 9 1 17 -4 17 -10z m-613 -56 c-3
-10 -5 -4 -5 12 0 17 2 24 5 18 2 -7 2 -21 0 -30z m-100 -20 c-5 -26 -2 -39 9
-48 12 -8 14 -18 7 -44 l-9 -33 -13 26 c-8 14 -18 26 -22 26 -7 0 -4 23 13 78
13 43 22 41 15 -5z m1112 -18 c-33 -45 -52 -52 -42 -14 5 17 55 59 71 59 2 0
-11 -20 -29 -45z m-1159 -81 c0 -12 -5 -24 -11 -26 -7 -2 -16 -32 -20 -66 -5
-35 -16 -75 -24 -90 -16 -27 -16 -27 -10 -2 4 14 10 52 15 85 15 101 21 122
36 122 8 0 14 -10 14 -23z m448 5 c11 -17 11 -24 1 -33 -9 -8 -10 -8 -5 2 4 6
2 12 -4 12 -6 0 -20 9 -32 20 l-22 20 25 0 c14 0 30 -9 37 -21z m-425 -34 c-3
-9 -8 -14 -10 -11 -3 3 -2 9 2 15 9 16 15 13 8 -4z m-112 -26 c-5 -13 -10 -19
-10 -12 -1 15 10 45 15 40 3 -2 0 -15 -5 -28z m-854 -101 c-2 -13 -4 -5 -4 17
-1 22 1 32 4 23 2 -10 2 -28 0 -40z m1213 -55 c0 -10 -9 -29 -20 -43 -12 -14
-43 -61 -70 -105 -65 -104 -208 -250 -226 -232 -3 3 8 20 24 38 16 19 72 93
126 164 139 187 146 195 156 195 6 0 10 -8 10 -17z m1250 -58 c-9 -11 -10 -18
-1 -29 9 -11 6 -15 -13 -18 -39 -8 -49 12 -20 39 28 26 54 32 34 8z m-130 -59
c0 -3 -4 -8 -10 -11 -5 -3 -10 -1 -10 4 0 6 5 11 10 11 6 0 10 -2 10 -4z m165
-20 c-9 -13 -24 -27 -33 -31 -10 -4 -5 6 12 24 36 37 42 39 21 7z m71 -40
c-27 -21 -76 -25 -76 -6 0 11 30 34 36 27 3 -3 17 -2 32 3 38 10 41 3 8 -24z
m-2666 -76 c16 -31 12 -32 -20 -3 -16 14 -30 30 -30 35 0 14 39 -11 50 -32z
m393 -35 c-3 -9 -8 -14 -10 -11 -3 3 -2 9 2 15 9 16 15 13 8 -4z m2071 -82
c-31 -42 -43 -53 -61 -53 -28 0 -10 30 32 54 25 15 45 32 45 38 0 6 3 8 6 5 4
-4 -6 -23 -22 -44z m-2085 -9 c4 3 13 1 21 -4 10 -6 5 -13 -21 -29 -31 -19
-70 -31 -41 -12 7 4 12 12 11 17 -4 15 14 49 19 36 2 -7 7 -10 11 -8z m9 -98
c-26 -19 -22 -26 12 -20 32 7 60 -8 60 -32 0 -29 -53 -15 -135 34 -10 6 41 31
65 31 12 0 12 -2 -2 -13z m2022 -24 c0 -5 28 -8 63 -7 64 2 122 -16 144 -45
17 -21 16 -26 -9 -42 -43 -28 -63 -30 -90 -6 -44 41 -88 69 -88 57 0 -11 46
-53 52 -47 3 3 22 -11 59 -44 10 -10 23 -18 29 -18 5 0 14 8 19 18 9 14 10 11
8 -14 -2 -17 -11 -41 -20 -54 -9 -14 -17 -30 -17 -37 0 -13 -24 -18 -66 -14
-25 2 -41 -15 -46 -49 -2 -17 -9 -25 -21 -24 -12 1 -17 -6 -17 -27 0 -15 -4
-31 -10 -34 -5 -3 -10 1 -10 10 0 14 -2 14 -25 -1 -16 -10 -25 -26 -25 -43 0
-14 -4 -21 -8 -16 -4 6 -16 10 -27 10 -14 0 -21 8 -23 28 -2 15 -7 27 -12 27
-4 0 -11 12 -14 27 -6 21 -1 31 24 55 22 19 38 27 51 23 23 -8 23 -8 -1 48
-23 52 -35 52 -67 2 -20 -31 -26 -33 -48 -25 -24 9 -25 8 -25 -35 0 -36 -3
-43 -15 -39 -9 4 -22 18 -30 33 -14 27 -14 28 -30 -24 -2 -8 -11 -15 -20 -15
-11 0 -15 11 -15 46 0 58 17 73 86 74 33 0 56 5 64 15 7 8 18 15 26 15 25 0
102 91 114 136 7 25 19 44 26 44 8 0 14 -4 14 -8z m-1522 -120 c3 -16 -1 -20
-12 -16 -19 7 -22 48 -3 42 6 -3 13 -14 15 -26z m1116 4 c-1 -9 2 -16 7 -16 5
0 9 5 9 11 0 5 5 7 12 3 7 -5 5 -11 -7 -21 -22 -15 -39 -17 -30 -4 3 6 -2 14
-11 19 -10 5 -14 14 -9 21 10 17 30 7 29 -13z m2864 -35 c-5 -25 -12 -61 -15
-78 -6 -38 -43 -49 -43 -13 0 11 -5 20 -11 20 -5 0 -7 -4 -4 -10 3 -5 2 -10
-4 -10 -5 0 -14 8 -20 18 -9 15 -11 14 -20 -9 -12 -33 -25 -38 -114 -44 -40
-2 -63 -2 -52 1 11 3 24 10 30 15 5 5 16 9 24 9 8 0 23 8 34 18 15 13 21 14
24 4 4 -11 41 54 57 102 5 15 13 17 51 13 25 -3 45 -2 45 2 0 4 6 8 13 8 10 0
11 -11 5 -46z m-4888 -5 c0 -2 -9 -6 -20 -9 -11 -3 -20 -1 -20 4 0 5 9 9 20 9
11 0 20 -2 20 -4z m2310 -78 c0 -16 -3 -19 -11 -11 -6 6 -8 16 -5 22 11 17 16
13 16 -11z m-2279 -12 c-6 -7 -21 -12 -34 -11 -29 3 -29 3 -22 15 3 6 20 10
37 10 25 0 28 -3 19 -14z m1485 -78 l2 -53 -19 47 c-10 26 -16 55 -12 63 11
29 26 -2 29 -57z m1234 -8 c0 -5 -7 -7 -15 -4 -8 4 -15 8 -15 10 0 2 7 4 15 4
8 0 15 -4 15 -10z m-489 -313 c-1 -12 -15 -9 -19 4 -3 6 1 10 8 8 6 -3 11 -8
11 -12z m1670 -50 c-1 -12 -15 -9 -19 4 -3 6 1 10 8 8 6 -3 11 -8 11 -12z m34
-57 c3 -5 1 -10 -4 -10 -6 0 -11 5 -11 10 0 6 2 10 4 10 3 0 8 -4 11 -10z
m-2118 -66 c-9 -9 -28 6 -21 18 4 6 10 6 17 -1 6 -6 8 -13 4 -17z m-587 -43
c0 -6 -4 -13 -10 -16 -5 -3 -10 1 -10 9 0 9 5 16 10 16 6 0 10 -4 10 -9z m-63
-16 c0 -8 -4 -15 -8 -15 -4 0 -11 -10 -15 -22 -6 -21 -42 -57 -56 -58 -5 0 -8
7 -8 15 0 20 -16 19 -24 -1 -4 -9 -9 -14 -12 -11 -13 13 34 71 71 88 49 23 52
23 52 4z m1733 0 c0 -8 -4 -15 -10 -15 -5 0 -10 7 -10 15 0 8 5 15 10 15 6 0
10 -7 10 -15z m228 -1 c-16 -8 -28 -22 -28 -31 0 -13 3 -13 16 -2 13 10 17 10
24 -1 5 -8 7 -17 4 -19 -3 -3 -9 0 -13 7 -6 10 -10 10 -20 -2 -10 -12 -17 -13
-31 -3 -18 11 -18 12 -2 30 17 19 48 36 67 36 6 0 -2 -7 -17 -15z m-1918 -34
c8 12 10 11 10 -7 0 -16 -8 -25 -25 -29 -24 -6 -35 -24 -15 -24 6 0 10 -4 10
-8 0 -4 -9 -8 -19 -8 -16 0 -19 5 -14 31 8 41 23 60 35 43 6 -10 10 -10 18 2z
m1832 -42 c-7 -7 -12 -8 -12 -2 0 14 12 26 19 19 2 -3 -1 -11 -7 -17z m-902
-3 c0 -8 -4 -15 -10 -15 -5 0 -10 7 -10 15 0 8 5 15 10 15 6 0 10 -7 10 -15z
m-723 -111 c-3 -3 -12 -4 -19 -1 -8 3 -5 6 6 6 11 1 17 -2 13 -5z m26 -95 c-7
-7 -12 -3 -15 16 -5 25 -4 25 10 11 12 -11 13 -19 5 -27z m1802 -9 c11 -9 12
-16 3 -30 -6 -10 -16 -17 -22 -15 -6 2 -23 6 -38 9 -26 6 -27 5 -21 -25 8 -43
-18 -35 -29 9 -10 38 -19 44 -64 44 -19 0 -34 2 -34 4 0 25 177 28 205 4z
m-335 -81 c0 -5 -7 -9 -15 -9 -15 0 -20 12 -9 23 8 8 24 -1 24 -14z m-1744
-95 c-3 -8 -16 -14 -28 -14 -20 1 -21 2 -7 13 8 7 19 21 24 32 7 18 8 19 12 2
3 -10 2 -25 -1 -33z m1794 -333 c7 -25 22 -61 32 -79 20 -37 24 -55 5 -31 -7
8 -19 18 -28 21 -15 6 -49 89 -49 121 0 32 28 10 40 -32z m-2320 -182 c0 -16
-7 -19 -39 -19 -22 0 -46 3 -55 6 -20 7 -11 24 12 24 15 0 15 -2 2 -10 -12 -7
-8 -10 15 -10 23 0 27 3 15 10 -12 8 -9 10 13 10 19 0 26 4 21 12 -4 7 -3 8 4
4 7 -4 12 -16 12 -27z"/>
<path d="M2010 4900 c0 -5 5 -10 11 -10 5 0 7 5 4 10 -3 6 -8 10 -11 10 -2 0
-4 -4 -4 -10z"/>
<path d="M1217 4473 c-4 -3 -7 -11 -7 -17 0 -6 5 -5 12 2 6 6 9 14 7 17 -3 3
-9 2 -12 -2z"/>
<path d="M820 3750 c-6 -11 -8 -20 -6 -20 3 0 10 9 16 20 6 11 8 20 6 20 -3 0
-10 -9 -16 -20z"/>
<path d="M852 3679 c-17 -27 -10 -34 17 -18 29 19 37 5 12 -20 -12 -12 -21
-31 -21 -44 0 -13 -3 -27 -8 -32 -4 -6 11 8 34 30 56 55 72 121 22 92 -16 -9
-22 -9 -25 1 -7 18 -16 15 -31 -9z"/>
<path d="M400 3662 c0 -17 4 -34 10 -37 6 -4 7 6 3 27 -8 44 -13 48 -13 10z"/>
<path d="M451 3525 c0 -5 6 -19 14 -29 8 -11 15 -15 15 -10 0 6 -7 19 -15 30
-8 10 -14 15 -14 9z"/>
<path d="M1485 2901 c-3 -5 -1 -12 5 -16 5 -3 10 1 10 9 0 18 -6 21 -15 7z"/>
<path d="M506 5025 c-3 -8 -1 -27 4 -41 10 -25 11 -26 35 -10 14 9 30 14 36
10 15 -9 0 39 -15 48 -19 13 -54 9 -60 -7z"/>
<path d="M897 4940 c-3 -11 -1 -20 4 -20 5 0 9 9 9 20 0 11 -2 20 -4 20 -2 0
-6 -9 -9 -20z"/>
<path d="M587 4920 c-9 -18 -14 -37 -10 -43 4 -6 1 -7 -7 -2 -8 5 -11 3 -8 -6
3 -8 10 -13 16 -12 7 2 8 -8 2 -27 -13 -44 -4 -37 25 20 29 57 29 60 12 85
-13 17 -15 16 -30 -15z"/>
<path d="M664 4881 c-34 -21 -69 -80 -56 -93 5 -5 29 19 55 52 50 64 50 71 1
41z"/>
<path d="M495 4790 c3 -5 8 -10 11 -10 2 0 4 5 4 10 0 6 -5 10 -11 10 -5 0 -7
-4 -4 -10z"/>
<path d="M971 4754 c0 -11 3 -14 6 -6 3 7 2 16 -1 19 -3 4 -6 -2 -5 -13z"/>
<path d="M536 4697 c3 -10 9 -15 12 -12 3 3 0 11 -7 18 -10 9 -11 8 -5 -6z"/>
<path d="M389 4529 c-15 -22 -18 -33 -10 -40 6 -5 9 -6 6 -3 -3 4 5 22 16 41
26 42 18 43 -12 2z"/>
<path d="M3 4332 c1 -95 5 -172 10 -172 4 0 7 6 7 14 0 9 8 12 24 9 24 -5 42
19 30 39 -4 6 -1 14 7 18 21 14 -25 183 -67 244 -12 17 -13 -6 -11 -152z"/>
<path d="M0 3098 c1 -29 7 -64 15 -78 8 -14 15 -38 15 -55 2 -52 18 2 19 64 1
38 -5 64 -20 87 -11 19 -23 34 -25 34 -2 0 -4 -24 -4 -52z"/>
</g>
</svg>
